<?xml version="1.0" encoding="utf-8"?>
<!-- Generator: Adobe Illustrator 15.1.0, SVG Export Plug-In . SVG Version: 6.00 Build 0)  -->
<!DOCTYPE svg PUBLIC "-//W3C//DTD SVG 1.1//EN" "http://www.w3.org/Graphics/SVG/1.1/DTD/svg11.dtd">
<svg version="1.1" id="Capa_1" xmlns="http://www.w3.org/2000/svg" xmlns:xlink="http://www.w3.org/1999/xlink" x="0px" y="0px"
	 width="700px" height="200px" viewBox="0 0 700 200" enable-background="new 0 0 700 200" xml:space="preserve">
<g>
	<path fill="#FFFFFF" d="M108.91,114.396c4.071-9.643,8.152-19.273,12.239-28.893c-8.231,0.927-16.458,1.897-24.681,2.919
		c5.436-12.274,10.887-24.525,16.347-36.756c-0.14-9.957-0.279-19.914-0.423-29.871c-29.05,3.372-58.045,7.348-86.969,11.922
		c0.176,9.141,0.35,18.278,0.525,27.416C43.094,57.46,60.271,54,77.466,50.752c-6.259,14.207-12.502,28.441-18.729,42.706
		c-10.7,1.522-21.392,3.134-32.073,4.823c0.18,9.137,0.354,18.274,0.533,27.412c6.426-1.384,12.859-2.744,19.297-4.067
		c-6.278,14.457-12.537,28.943-18.772,43.46c0.255,9.127,0.505,18.252,0.756,27.381c28.662-4.537,57.39-8.474,86.175-11.813
		c-0.136-9.146-0.262-18.291-0.391-27.437c-16.812,2.911-33.6,6.028-50.364,9.344c6.951-15.904,13.93-31.773,20.928-47.608
		C92.85,114.719,100.878,114.535,108.91,114.396z"/>
	<path fill="#FFFFFF" d="M235.706,169.799c-8.326-20.483-16.685-40.917-25.062-61.304c5.276-4.425,10.089-8.728,14.438-12.915
		c-0.215-27.929-0.43-55.859-0.644-83.792c-11.357,0.711-22.705,1.516-34.045,2.409c0.227,23.684,0.452,47.369,0.683,71.053
		c-9.463,8.351-17.679,15.266-24.645,20.697c-0.335-29.879-0.668-59.757-0.998-89.635c-11.495,1.042-22.979,2.18-34.458,3.408
		c0.69,52.85,1.387,105.698,2.078,158.543c11.373-1.216,22.752-2.342,34.142-3.375c-0.12-10.92-0.242-21.839-0.367-32.754
		c4.255-3.117,9.091-6.684,14.514-10.684c5.873,13.574,11.734,27.178,17.584,40.801C211.181,171.326,223.439,170.51,235.706,169.799
		L235.706,169.799z"/>
	<path fill="#FFFFFF" d="M306.819,140.207c-0.55,0.012-1.094,0.026-1.639,0.039c-1.877,0.124-3.63,0.203-5.272,0.251
		c-8.59,0.234-14.362-0.374-17.337-1.894c-3.289-1.729-4.95-6.684-4.986-14.878c-0.183-38.193-0.357-76.385-0.533-114.578
		c-11.523,0.435-23.046,0.962-34.562,1.587c0.273,40.849,0.544,81.692,0.819,122.541c0.039,6.642,1.701,12.605,4.97,17.895
		c3.269,5.295,7.993,9.411,14.171,12.382c6.173,2.97,13.584,4.286,22.237,3.983c18.814-0.647,37.646-1.046,56.475-1.188
		c-0.052-52.884-0.1-105.77-0.147-158.654c-11.531,0.092-23.059,0.27-34.586,0.55C306.56,52.23,306.692,96.216,306.819,140.207z"/>
	<path fill="#FFFFFF" d="M378.026,12.604c-6.18,3.188-10.919,7.523-14.224,12.974c-3.304,5.452-4.95,11.505-4.954,18.148
		c0,15.981-0.004,31.958-0.004,47.938c-4.231-0.004-8.458,0.009-12.685,0.027c4.231,9.135,8.462,18.276,12.685,27.428
		c-0.005,15.724-0.005,31.446-0.009,47.168c11.464,0.008,22.928,0.111,34.388,0.307c0.032-16.717,0.067-33.437,0.103-50.154
		c0.041,0,0.081,0,0.12,0.006c9.654,0.754,19.305,1.577,28.956,2.464c-0.061,16.129-0.12,32.253-0.184,48.381
		c11.46,0.354,22.912,0.799,34.363,1.344c0.311-52.881,0.615-105.758,0.924-158.635C438.514,9.1,419.519,8.46,400.517,8.07
		C391.704,7.891,384.205,9.418,378.026,12.604L378.026,12.604z M393.463,51.117c0.015-8.04,1.718-12.887,5.097-14.518
		c2.672-1.276,7.706-1.841,15.086-1.646c2.672,0.072,5.658,0.231,8.955,0.479c0.039,0,0.08,0.004,0.119,0.004
		c-0.071,19.077-0.144,38.156-0.215,57.234c-9.709-0.299-19.42-0.533-29.126-0.696C393.407,78.355,393.435,64.736,393.463,51.117z"
		/>
	<path fill="#FFFFFF" d="M566.732,35.936c-3.224-5.785-7.911-10.6-14.07-14.422c-6.16-3.817-13.597-6.104-22.312-6.814
		c-18.287-1.495-36.59-2.756-54.905-3.778c-0.361,52.878-0.723,105.749-1.089,158.626c18.147,1.012,36.284,2.26,54.403,3.738
		c8.637,0.709,16.036-0.258,22.217-2.938c6.175-2.676,10.931-6.565,14.263-11.703c3.332-5.133,5.042-11.015,5.129-17.655
		c0.358-28.804,0.716-57.608,1.073-86.413C571.521,47.937,569.954,41.721,566.732,35.936L566.732,35.936z M509.857,39.924
		c2.194,0.084,4.198,0.195,6,0.33c8.154,0.613,13.595,1.837,16.322,3.615c3.192,2.035,4.747,7.006,4.668,14.898
		c-0.25,23.87-0.501,47.735-0.748,71.602c-0.086,7.897-1.732,12.589-4.946,14.097c-2.743,1.323-8.158,1.649-16.263,1.042
		c-1.797-0.135-3.781-0.318-5.965-0.55C509.236,109.947,509.547,74.936,509.857,39.924L509.857,39.924z"/>
	<path fill="#FFFFFF" d="M675.271,31.578c-16.151-2.445-32.318-4.704-48.511-6.775c-8.685-1.109-16.145-0.386-22.371,2.135
		c-6.234,2.521-11.01,6.343-14.33,11.443c-3.315,5.103-5.026,10.976-5.113,17.611c-0.148,11.357-0.298,22.717-0.445,34.077
		c19.595,15.782,39.127,31.839,58.583,48.169c-0.013,0.665-0.021,1.329-0.032,1.993c-0.103,6.189-0.644,10.571-1.618,13.133
		c-0.979,2.569-2.748,3.912-5.317,4.051c-2.563,0.141-5.714-0.039-9.436-0.521c-1.399-0.178-2.909-0.409-4.539-0.687
		c-2.331-0.37-4.932-0.731-7.803-1.087c-0.985-9.432-1.972-18.859-2.967-28.286c-9.09-1.73-18.187-3.405-27.293-5.015
		c-0.25,18.844-0.501,37.691-0.748,56.535c16.534,1.785,33.052,3.77,49.554,5.952c8.596,1.134,15.96,0.537,22.092-1.841
		c6.133-2.375,10.872-6.031,14.224-10.998c3.353-4.967,5.089-10.765,5.212-17.397c0.184-9.987,0.37-19.977,0.558-29.961
		C655.54,107.74,636.04,91.64,616.47,75.818c0.008-0.517,0.017-1.033,0.019-1.551c0.017-0.958,0.053-2.154,0.116-3.586
		c0.056-1.433,0.119-2.848,0.179-4.243c0.061-1.396,0.14-2.569,0.231-3.52c0.321-6.016,1.976-9.436,4.966-10.243
		c2.985-0.803,8.151-0.743,15.487,0.235c1.562,0.206,3.276,0.478,5.149,0.803c0.23,0.032,0.47,0.063,0.7,0.096
		c-0.184,11.022-0.365,22.044-0.549,33.066c9.106,1.869,18.195,3.794,27.285,5.781C671.788,72.295,673.528,51.937,675.271,31.578
		L675.271,31.578z"/>
</g>
</svg>
